<?xml version="1.0" encoding="utf-8"?>
<!-- Generator: Adobe Illustrator 28.1.0, SVG Export Plug-In . SVG Version: 6.00 Build 0)  -->
<svg version="1.1" id="Layer_1" xmlns="http://www.w3.org/2000/svg" xmlns:xlink="http://www.w3.org/1999/xlink" x="0px" y="0px"
	 viewBox="0 0 102.6 92.8" style="enable-background:new 0 0 102.6 92.8;" xml:space="preserve">
<style type="text/css">
	.st0{fill:url(#SVGID_1_);}
</style>
<linearGradient id="SVGID_1_" gradientUnits="userSpaceOnUse" x1="51.297" y1="14.5" x2="51.297" y2="98.4632" gradientTransform="matrix(1 0 0 -1 0 103.8125)">
	<stop  offset="0" style="stop-color:#52E588"/>
	<stop  offset="0.4196" style="stop-color:#56F085"/>
	<stop  offset="1" style="stop-color:#5AFB83"/>
</linearGradient>
<path class="st0" d="M21.7,63.5c0.1-8,0.1-7.9-8.1-8.1C11,55.3,7.1,56.9,6,53.6c-1.3-4.4-1.4-9.3,0.1-13.7c0.7-2.1,3.5-1.5,5.4-1.5
	c10.7,0,10.3,0.7,10-9.9c-0.1-5,1.6-7.2,6.7-6.3c0.8,0.1,1.7,0,2.5,0c7.7,0,7.9,0,7.7-7.6c-0.2-4.5,1.6-6.5,5.8-7.7
	c16.1-4.5,35.3,1.8,44.7,14.9c10.9,15.2,11.7,34.4,1.9,48.6c-10.6,15.2-28.8,22-46,17.5c-4.6-1.2-6.6-3.4-6.4-8.4
	c0.3-7.1,0-7.1-7.2-7.1c-0.3,0-0.7,0-1,0C21.6,72.4,21.6,72.4,21.7,63.5z M47,72.1c8.4,0.1,8.4,0.1,8.5-6.4
	c0.1-9.8-0.2-10.2-6.9-10.3c-9.2,0-9.7,0.5-9.8,9.1C38.8,71.4,39.5,72.1,47,72.1z M47,38.3c8.4,0,8.4,0,8.5-6.5
	c0.1-9.5,0.1-9.5-6.4-9.5c-9.9,0-10.3,0.3-10.3,9.3C38.8,38.2,38.8,38.3,47,38.3z M30.6,39.3c-8,0-8,0-8,7.9c0,8,0,8,7.4,8
	c8.5,0,8.5,0,8.5-6.9C38.6,39.3,38.6,39.3,30.6,39.3z"/>
</svg>