<?xml version="1.0" encoding="utf-8"?>
<!-- Generator: Adobe Illustrator 28.1.0, SVG Export Plug-In . SVG Version: 6.00 Build 0)  -->
<svg version="1.1" id="Layer_1" xmlns="http://www.w3.org/2000/svg" xmlns:xlink="http://www.w3.org/1999/xlink" x="0px" y="0px"
	 viewBox="0 0 433.8 122" style="enable-background:new 0 0 433.8 122;" xml:space="preserve">
<style type="text/css">
	.st0{fill:url(#SVGID_1_);}
	.st1{fill:#19D157;}
</style>
<linearGradient id="SVGID_1_" gradientUnits="userSpaceOnUse" x1="59.5441" y1="102.9816" x2="59.5441" y2="19.0184">
	<stop  offset="0" style="stop-color:#52E588"/>
	<stop  offset="0.4196" style="stop-color:#56F085"/>
	<stop  offset="1" style="stop-color:#5AFB83"/>
</linearGradient>
<path class="st0" d="M29.9,77.2c0.1-8,0.1-7.9-8.1-8.1c-2.6-0.1-6.5,1.5-7.6-1.8c-1.3-4.4-1.4-9.3,0.1-13.7c0.7-2.1,3.5-1.5,5.4-1.5
	c10.7,0,10.3,0.7,10-9.9c-0.1-5,1.6-7.2,6.7-6.3c0.8,0.1,1.7,0,2.5,0c7.7,0,7.9,0,7.7-7.6c-0.2-4.5,1.6-6.5,5.8-7.7
	c16.1-4.5,35.3,1.8,44.7,14.9C108,50.7,108.8,69.9,99,84.1C88.4,99.3,70.2,106.1,53,101.6c-4.6-1.2-6.6-3.4-6.4-8.4
	c0.3-7.1,0-7.1-7.2-7.1c-0.3,0-0.7,0-1,0C29.8,86.1,29.8,86.1,29.9,77.2z M55.2,85.8c8.4,0.1,8.4,0.1,8.5-6.4
	c0.1-9.8-0.2-10.2-6.9-10.3c-9.2,0-9.7,0.5-9.8,9.1C47,85.1,47.7,85.8,55.2,85.8z M55.2,52c8.4,0,8.4,0,8.5-6.5
	c0.1-9.5,0.1-9.5-6.4-9.5C47.4,36,47,36.3,47,45.3C47,51.9,47,52,55.2,52z M38.8,53c-8,0-8,0-8,7.9c0,8,0,8,7.4,8
	c8.5,0,8.5,0,8.5-6.9C46.8,53,46.8,53,38.8,53z"/>
<g>
	<path class="st1" d="M147.9,60.5c-1.1,2-2.8,3.6-5.1,4.9c-2.4,1.3-5.4,1.9-9,1.9h-8.1v18.1h-7.3V40.8h15.4c3.4,0,6.3,0.6,8.7,1.8
		c2.4,1.2,4.1,2.8,5.3,4.8c1.2,2,1.8,4.3,1.8,6.7C149.5,56.4,148.9,58.5,147.9,60.5z M139.9,59.5c1.4-1.3,2.1-3,2.1-5.4
		c0-4.9-2.8-7.3-8.3-7.3h-8.1v14.6h8.1C136.5,61.4,138.5,60.7,139.9,59.5z"/>
	<path class="st1" d="M162.2,37.9v47.5h-7.3V37.9H162.2z"/>
	<path class="st1" d="M170,58.1c1.5-2.7,3.5-4.9,6-6.4c2.5-1.5,5.4-2.3,8.4-2.3c2.8,0,5.2,0.5,7.3,1.6c2.1,1.1,3.7,2.4,5,4.1v-5.1
		h7.4v35.4h-7.4v-5.3c-1.2,1.7-2.9,3.1-5.1,4.2c-2.1,1.1-4.6,1.7-7.3,1.7c-3,0-5.8-0.8-8.3-2.3c-2.5-1.6-4.5-3.7-6-6.5
		c-1.5-2.8-2.2-6-2.2-9.5C167.8,64,168.5,60.9,170,58.1z M195.2,61.4c-1-1.8-2.3-3.2-3.9-4.1c-1.6-0.9-3.4-1.4-5.3-1.4
		c-1.9,0-3.6,0.5-5.3,1.4c-1.6,0.9-2.9,2.3-3.9,4c-1,1.8-1.5,3.9-1.5,6.3s0.5,4.6,1.5,6.4c1,1.8,2.3,3.2,4,4.2
		c1.6,1,3.4,1.4,5.2,1.4c1.9,0,3.6-0.5,5.3-1.4c1.6-0.9,2.9-2.3,3.9-4.1c1-1.8,1.5-3.9,1.5-6.4S196.2,63.1,195.2,61.4z"/>
	<path class="st1" d="M217.5,84.5c-2.2-1-3.9-2.4-5.2-4.1c-1.3-1.7-2-3.7-2.1-5.8h7.6c0.1,1.5,0.8,2.7,2.2,3.8
		c1.3,1,2.9,1.5,4.9,1.5c2.1,0,3.6-0.4,4.8-1.2c1.1-0.8,1.7-1.8,1.7-3c0-1.3-0.6-2.3-1.9-3c-1.3-0.6-3.3-1.3-6-2.1
		c-2.7-0.7-4.8-1.4-6.5-2.1c-1.7-0.7-3.1-1.7-4.3-3.1c-1.2-1.4-1.8-3.3-1.8-5.6c0-1.9,0.6-3.6,1.7-5.2c1.1-1.6,2.7-2.8,4.8-3.7
		c2.1-0.9,4.5-1.3,7.2-1.3c4,0,7.3,1,9.7,3c2.5,2,3.8,4.8,3.9,8.3h-7.3c-0.1-1.6-0.8-2.8-1.9-3.8c-1.2-0.9-2.7-1.4-4.7-1.4
		c-1.9,0-3.4,0.4-4.4,1.1c-1,0.7-1.5,1.7-1.5,2.9c0,0.9,0.3,1.7,1,2.4c0.7,0.6,1.5,1.1,2.5,1.5c1,0.4,2.4,0.8,4.4,1.4
		c2.6,0.7,4.7,1.4,6.3,2.1c1.6,0.7,3.1,1.7,4.3,3.1c1.2,1.4,1.8,3.2,1.9,5.5c0,2-0.6,3.8-1.7,5.4c-1.1,1.6-2.7,2.8-4.7,3.7
		s-4.4,1.3-7.2,1.3C222.2,86,219.7,85.5,217.5,84.5z"/>
	<path class="st1" d="M295,51.2c2.2,1.2,3.9,2.9,5.2,5.1c1.3,2.3,1.9,5,1.9,8.2v20.9h-7.2V65.7c0-3.2-0.8-5.6-2.4-7.3
		c-1.6-1.7-3.7-2.5-6.5-2.5c-2.7,0-4.9,0.8-6.5,2.5c-1.6,1.7-2.4,4.1-2.4,7.3v19.8h-7.3V65.7c0-3.2-0.8-5.6-2.4-7.3
		c-1.6-1.7-3.7-2.5-6.5-2.5s-4.9,0.8-6.5,2.5c-1.6,1.7-2.4,4.1-2.4,7.3v19.8h-7.3V50.1h7.3v4c1.2-1.5,2.7-2.6,4.6-3.4
		c1.8-0.8,3.8-1.2,5.9-1.2c2.8,0,5.3,0.6,7.6,1.8c2.2,1.2,3.9,2.9,5.1,5.2c1.1-2.1,2.7-3.8,5-5.1c2.3-1.3,4.7-1.9,7.3-1.9
		C290.3,49.5,292.8,50.1,295,51.2z"/>
	<path class="st1" d="M309.6,58.1c1.5-2.7,3.5-4.9,6-6.4c2.5-1.5,5.4-2.3,8.4-2.3c2.8,0,5.2,0.5,7.3,1.6c2.1,1.1,3.7,2.4,5,4.1v-5.1
		h7.4v35.4h-7.4v-5.3c-1.2,1.7-2.9,3.1-5.1,4.2c-2.1,1.1-4.6,1.7-7.3,1.7c-3,0-5.8-0.8-8.3-2.3c-2.5-1.6-4.5-3.7-6-6.5
		c-1.5-2.8-2.2-6-2.2-9.5C307.4,64,308.1,60.9,309.6,58.1z M334.8,61.4c-1-1.8-2.3-3.2-3.9-4.1c-1.6-0.9-3.4-1.4-5.3-1.4
		s-3.6,0.5-5.3,1.4c-1.6,0.9-2.9,2.3-3.9,4c-1,1.8-1.5,3.9-1.5,6.3s0.5,4.6,1.5,6.4c1,1.8,2.3,3.2,4,4.2c1.6,1,3.4,1.4,5.2,1.4
		c1.9,0,3.6-0.5,5.3-1.4c1.6-0.9,2.9-2.3,3.9-4.1c1-1.8,1.5-3.9,1.5-6.4S335.8,63.1,334.8,61.4z"/>
	<path class="st1" d="M360.3,56v19.6c0,1.3,0.3,2.3,0.9,2.9c0.6,0.6,1.7,0.9,3.2,0.9h4.5v6.1h-5.8c-3.3,0-5.8-0.8-7.6-2.3
		s-2.6-4-2.6-7.5V56h-4.2v-6h4.2v-8.8h7.4v8.8h8.6v6H360.3z"/>
	<path class="st1" d="M374.4,44c-0.9-0.9-1.3-2-1.3-3.3c0-1.3,0.4-2.4,1.3-3.3c0.9-0.9,2-1.3,3.3-1.3c1.3,0,2.4,0.4,3.3,1.3
		s1.3,2,1.3,3.3c0,1.3-0.4,2.4-1.3,3.3s-2,1.3-3.3,1.3C376.4,45.4,375.3,44.9,374.4,44z M381.3,50.1v35.4H374V50.1H381.3z"/>
	<path class="st1" d="M389.1,58.1c1.5-2.8,3.5-4.9,6.1-6.4c2.6-1.5,5.6-2.2,9-2.2c4.3,0,7.8,1,10.6,3c2.8,2,4.7,4.9,5.7,8.7h-7.9
		c-0.6-1.8-1.7-3.1-3.1-4.1c-1.4-1-3.2-1.5-5.3-1.5c-3,0-5.4,1.1-7.2,3.2s-2.7,5.1-2.7,8.9c0,3.8,0.9,6.8,2.7,8.9
		c1.8,2.1,4.2,3.2,7.2,3.2c4.2,0,7-1.9,8.4-5.6h7.9c-1,3.6-3,6.4-5.8,8.6c-2.8,2.1-6.3,3.2-10.5,3.2c-3.4,0-6.4-0.8-9-2.3
		c-2.6-1.5-4.7-3.7-6.1-6.4c-1.5-2.8-2.2-6-2.2-9.6C386.9,64.1,387.6,60.9,389.1,58.1z"/>
</g>
</svg>